<svg width="76" height="56" viewBox="0 0 76 56" fill="none" xmlns="http://www.w3.org/2000/svg">
<path d="M75.5 28.0001C75.5156 33.9538 73.5842 39.7493 70 44.5033C69.8026 44.7659 69.5554 44.9871 69.2725 45.1542C68.9896 45.3213 68.6766 45.4311 68.3513 45.4772C68.026 45.5234 67.6948 45.505 67.3766 45.4231C67.0584 45.3413 66.7595 45.1975 66.4968 45.0001C66.2342 44.8028 66.013 44.5556 65.8459 44.2727C65.6788 43.9898 65.569 43.6768 65.5229 43.3515C65.4767 43.0262 65.4951 42.695 65.577 42.3768C65.6588 42.0586 65.8026 41.7597 66 41.497C68.9338 37.6103 70.5143 32.8698 70.5 28.0001C70.5 22.0328 68.1294 16.3098 63.9099 12.0902C59.6903 7.87068 53.9673 5.50015 48 5.50015C42.0326 5.50015 36.3096 7.87068 32.0901 12.0902C27.8705 16.3098 25.5 22.0328 25.5 28.0001C25.5 28.6632 25.2366 29.2991 24.7677 29.7679C24.2989 30.2368 23.663 30.5001 23 30.5001C22.3369 30.5001 21.701 30.2368 21.2322 29.7679C20.7633 29.2991 20.5 28.6632 20.5 28.0001C20.4987 25.4773 20.8447 22.9662 21.5281 20.5377C21.1875 20.5002 20.8437 20.5002 20.5 20.5002C16.5217 20.5002 12.7064 22.0805 9.89335 24.8935C7.08031 27.7066 5.49996 31.5219 5.49996 35.5001C5.49996 39.4784 7.08031 43.2937 9.89335 46.1068C12.7064 48.9198 16.5217 50.5002 20.5 50.5002H28C28.663 50.5002 29.2989 50.7635 29.7677 51.2324C30.2366 51.7012 30.5 52.3371 30.5 53.0002C30.5 53.6632 30.2366 54.2991 29.7677 54.7679C29.2989 55.2368 28.663 55.5002 28 55.5002H20.5C17.7505 55.5008 15.0305 54.9345 12.5097 53.8367C9.98891 52.7389 7.72156 51.1331 5.84925 49.1197C3.97694 47.1062 2.53988 44.7284 1.62782 42.1346C0.715768 39.5408 0.348307 36.7869 0.548391 34.0447C0.748475 31.3025 1.51181 28.6311 2.79071 26.1972C4.06961 23.7633 5.83662 21.6192 7.98137 19.8989C10.1261 18.1785 12.6025 16.9189 15.256 16.1986C17.9094 15.4784 20.6828 15.3129 23.4031 15.7127C26.1731 10.1725 30.7323 5.72976 36.3422 3.104C41.9521 0.47824 48.2842 -0.176734 54.3129 1.24517C60.3415 2.66707 65.7135 6.08256 69.5588 10.9384C73.4042 15.7943 75.4976 21.8061 75.5 28.0001ZM47.2687 26.2314C47.0365 25.999 46.7608 25.8146 46.4573 25.6888C46.1538 25.5629 45.8285 25.4982 45.5 25.4982C45.1714 25.4982 44.8461 25.5629 44.5426 25.6888C44.2391 25.8146 43.9634 25.999 43.7312 26.2314L33.7312 36.2314C33.4989 36.4637 33.3147 36.7394 33.189 37.0429C33.0633 37.3464 32.9986 37.6717 32.9986 38.0001C32.9986 38.3286 33.0633 38.6539 33.189 38.9574C33.3147 39.2609 33.4989 39.5366 33.7312 39.7689C34.2003 40.238 34.8365 40.5015 35.5 40.5015C35.8284 40.5015 36.1537 40.4368 36.4572 40.3111C36.7607 40.1854 37.0364 40.0012 37.2687 39.7689L43 34.0345V53.0002C43 53.6632 43.2633 54.2991 43.7322 54.7679C44.201 55.2368 44.8369 55.5002 45.5 55.5002C46.163 55.5002 46.7989 55.2368 47.2677 54.7679C47.7366 54.2991 48 53.6632 48 53.0002V34.0345L53.7312 39.7689C53.9635 40.0012 54.2392 40.1854 54.5427 40.3111C54.8462 40.4368 55.1715 40.5015 55.5 40.5015C55.8284 40.5015 56.1537 40.4368 56.4572 40.3111C56.7607 40.1854 57.0364 40.0012 57.2687 39.7689C57.501 39.5366 57.6852 39.2609 57.8109 38.9574C57.9366 38.6539 58.0014 38.3286 58.0014 38.0001C58.0014 37.6717 57.9366 37.3464 57.8109 37.0429C57.6852 36.7394 57.501 36.4637 57.2687 36.2314L47.2687 26.2314Z" fill="#004098"/>
</svg>
